<svg width="177" height="24" viewBox="0 0 177 24" fill="none" xmlns="http://www.w3.org/2000/svg">
<path d="M0.929993 11.9009C0.929993 10.2212 1.17799 8.69521 1.67399 7.32276C2.19066 5.9299 2.90366 4.74181 3.81299 3.75859C4.72232 2.77537 5.81766 2.01743 7.09899 1.48489C8.40099 0.952344 9.83732 0.68602 11.408 0.68602C13.1647 0.68602 14.725 0.993277 16.089 1.60779C17.4737 2.20179 18.5173 3.13387 19.22 4.40383L15.779 6.43172C15.469 4.99782 14.942 3.91222 14.198 3.1748C13.454 2.43738 12.524 2.06868 11.408 2.06868C10.5193 2.06868 9.70299 2.30427 8.95899 2.77537C8.21499 3.24646 7.58466 3.91222 7.06799 4.77253C6.55132 5.63285 6.14832 6.66732 5.85899 7.87583C5.56966 9.08434 5.42499 10.4261 5.42499 11.9009C5.42499 13.3757 5.56966 14.7174 5.85899 15.9259C6.14832 17.1345 6.55132 18.1689 7.06799 19.0292C7.58466 19.8896 8.21499 20.5553 8.95899 21.0264C9.70299 21.4975 10.5193 21.7331 11.408 21.7331C12.524 21.7331 13.4333 21.3746 14.136 20.6577C14.8593 19.9203 15.5103 18.8244 16.089 17.3701L19.53 19.398C19.1787 20.033 18.724 20.586 18.166 21.0571C17.608 21.5078 16.9673 21.8867 16.244 22.194C15.5413 22.5012 14.7767 22.7265 13.95 22.8699C13.1233 23.0338 12.276 23.1158 11.408 23.1158C9.83732 23.1158 8.40099 22.8494 7.09899 22.3169C5.81766 21.7843 4.72232 21.0264 3.81299 20.0432C2.90366 19.06 2.19066 17.8822 1.67399 16.5097C1.17799 15.1169 0.929993 13.5806 0.929993 11.9009ZM33.7091 22.6549V17.0935C33.7091 16.6224 33.6264 16.1615 33.4611 15.7109C33.3164 15.2398 33.0684 14.83 32.7171 14.4818C32.3658 14.1131 31.8904 13.8161 31.2911 13.5908C30.6918 13.3655 29.9374 13.2528 29.0281 13.2528C27.8708 13.2528 26.8271 13.4884 25.8971 13.9595C24.9671 14.4306 24.1404 15.0656 23.4171 15.8645C22.6938 16.6634 22.0738 17.5749 21.5571 18.5991C21.0611 19.6232 20.6684 20.6884 20.3791 21.7946L20.1621 22.6549H18.9221L21.2471 12.9148C21.7431 10.8255 22.3734 9.03319 23.1381 7.53784C23.9028 6.04249 24.7914 4.82378 25.8041 3.88149C26.8374 2.9392 28.0051 2.25303 29.3071 1.82287C30.6091 1.37219 32.0454 1.14691 33.6161 1.14691H38.0491V22.6549H33.7091ZM21.8981 15.6494C22.7868 14.4204 23.8201 13.4884 24.9981 12.8534C26.1761 12.1979 27.5091 11.8702 28.9971 11.8702C30.1958 11.8702 31.1671 12.0136 31.9111 12.3003C32.6758 12.5871 33.2751 12.9661 33.7091 13.4372V2.37593H32.9961C31.8801 2.37593 30.7951 2.56029 29.7411 2.92899C28.7078 3.2977 27.7364 3.90201 26.8271 4.74181C25.9178 5.58161 25.0911 6.69804 24.3471 8.09091C23.6031 9.48377 22.9831 11.2044 22.4871 13.2528L21.8981 15.6494ZM41.1477 3.97367C41.2923 3.44112 41.592 2.98024 42.0467 2.59101C42.522 2.18137 43.08 1.83308 43.7207 1.54634C44.382 1.2596 45.1053 1.04452 45.8907 0.9011C46.6967 0.757681 47.513 0.68602 48.3397 0.68602C49.621 0.68602 50.7783 0.849857 51.8117 1.17763C52.8657 1.48489 53.7543 1.91505 54.4777 2.46811C55.2217 3.02117 55.79 3.68693 56.1827 4.46528C56.596 5.22321 56.8027 6.06301 56.8027 6.98478C56.8027 8.29578 56.3997 9.4019 55.5937 10.3032C54.8083 11.2044 53.7027 11.8702 52.2767 12.3003C53.186 12.6485 53.93 13.1401 54.5087 13.7752C55.108 14.4102 55.5523 15.25 55.8417 16.2947L57.6087 22.6549H53.0207L51.3157 16.479C50.985 15.25 50.5407 14.3384 49.9827 13.7444C49.4247 13.1299 48.567 12.8227 47.4097 12.8227H45.4877V22.6549H41.1477V3.97367ZM45.4877 11.5936H47.9987C49.3007 11.5936 50.3443 11.184 51.1297 10.3646C51.915 9.54522 52.3077 8.41868 52.3077 6.98478C52.3077 6.26788 52.2043 5.60213 51.9977 4.98761C51.791 4.3731 51.4913 3.84056 51.0987 3.38988C50.7267 2.91879 50.272 2.56029 49.7347 2.31448C49.218 2.04816 48.6393 1.91505 47.9987 1.91505C47.3373 1.91505 46.7483 2.11992 46.2317 2.52956C45.7357 2.9392 45.4877 3.50257 45.4877 4.21947V11.5936ZM59.7658 3.97367C59.9105 3.44112 60.2102 2.98024 60.6648 2.59101C61.1402 2.18137 61.6982 1.83308 62.3388 1.54634C63.0002 1.2596 63.7235 1.04452 64.5088 0.9011C65.3148 0.757681 66.1312 0.68602 66.9578 0.68602C68.2392 0.68602 69.3965 0.849857 70.4298 1.17763C71.4838 1.48489 72.3725 1.91505 73.0958 2.46811C73.8398 3.02117 74.4082 3.68693 74.8008 4.46528C75.2142 5.22321 75.4208 6.06301 75.4208 6.98478C75.4208 8.29578 75.0178 9.4019 74.2118 10.3032C73.4265 11.2044 72.3208 11.8702 70.8948 12.3003C71.8042 12.6485 72.5482 13.1401 73.1268 13.7752C73.7262 14.4102 74.1705 15.25 74.4598 16.2947L76.2268 22.6549H71.6388L69.9338 16.479C69.6032 15.25 69.1588 14.3384 68.6008 13.7444C68.0428 13.1299 67.1852 12.8227 66.0278 12.8227H64.1058V22.6549H59.7658V3.97367ZM64.1058 11.5936H66.6168C67.9188 11.5936 68.9625 11.184 69.7478 10.3646C70.5332 9.54522 70.9258 8.41868 70.9258 6.98478C70.9258 6.26788 70.8225 5.60213 70.6158 4.98761C70.4092 4.3731 70.1095 3.84056 69.7168 3.38988C69.3448 2.91879 68.8902 2.56029 68.3528 2.31448C67.8362 2.04816 67.2575 1.91505 66.6168 1.91505C65.9555 1.91505 65.3665 2.11992 64.8498 2.52956C64.3538 2.9392 64.1058 3.50257 64.1058 4.21947V11.5936ZM77.764 11.9009C77.764 10.2212 78.012 8.69521 78.508 7.32276C79.0247 5.9299 79.7377 4.74181 80.647 3.75859C81.5563 2.77537 82.6517 2.01743 83.933 1.48489C85.235 0.952344 86.6713 0.68602 88.242 0.68602C89.9987 0.68602 91.559 0.993277 92.923 1.60779C94.3077 2.20179 95.3513 3.13387 96.054 4.40383L92.613 6.43172C92.303 4.99782 91.776 3.91222 91.032 3.1748C90.288 2.43738 89.358 2.06868 88.242 2.06868C87.3947 2.06868 86.6197 2.28376 85.917 2.71392C85.2143 3.12356 84.6047 3.71765 84.088 4.496C83.5713 5.25394 83.158 6.17571 82.848 7.26131C82.538 8.3265 82.352 9.5248 82.29 10.8562C82.8893 10.0164 83.654 9.35066 84.584 8.85905C85.5347 8.36744 86.63 8.12163 87.87 8.12163C88.8413 8.12163 89.6577 8.26505 90.319 8.55179C90.9803 8.81811 91.5177 9.17651 91.931 9.62719C92.365 10.0573 92.675 10.5592 92.861 11.1327C93.047 11.6858 93.14 12.2389 93.14 12.7919H91.9C91.9 12.3618 91.8277 11.9521 91.683 11.5629C91.5383 11.1533 91.3007 10.805 90.97 10.5182C90.6393 10.211 90.195 9.96517 89.637 9.78082C89.0997 9.59646 88.428 9.50429 87.622 9.50429C86.8573 9.50429 86.1753 9.67843 85.576 10.0266C84.9973 10.3544 84.491 10.7948 84.057 11.3478C83.6437 11.8804 83.313 12.4847 83.065 13.1606C82.817 13.8161 82.6413 14.4716 82.538 15.1271C82.8893 17.1755 83.561 18.7936 84.553 19.9817C85.5657 21.1493 86.7953 21.7331 88.242 21.7331C89.358 21.7331 90.2673 21.3746 90.97 20.6577C91.6933 19.9203 92.3443 18.8244 92.923 17.3701L96.364 19.398C96.0127 20.033 95.558 20.586 95 21.0571C94.442 21.5078 93.8013 21.8867 93.078 22.194C92.3753 22.5012 91.6107 22.7265 90.784 22.8699C89.9573 23.0338 89.11 23.1158 88.242 23.1158C86.6713 23.1158 85.235 22.8494 83.933 22.3169C82.6517 21.7843 81.5563 21.0264 80.647 20.0432C79.7377 19.06 79.0247 17.8822 78.508 16.5097C78.012 15.1169 77.764 13.5806 77.764 11.9009ZM98.2361 22.3169V9.56574C98.2361 8.09091 98.4531 6.80043 98.8871 5.6943C99.3418 4.58818 99.9721 3.66641 100.778 2.92899C101.605 2.19158 102.586 1.63852 103.723 1.26981C104.88 0.880583 106.162 0.68602 107.567 0.68602C109.138 0.68602 110.543 0.993277 111.783 1.60779C113.023 2.20179 113.994 3.13387 114.697 4.40383L111.256 6.43172C110.533 3.52299 109.138 2.06868 107.071 2.06868C105.769 2.06868 104.694 2.65246 103.847 3.82004C103 4.98761 102.576 6.79022 102.576 9.22775V10.6719C103.196 9.89351 103.961 9.279 104.87 8.82832C105.779 8.35723 106.833 8.12163 108.032 8.12163C109.003 8.12163 109.82 8.26505 110.481 8.55179C111.142 8.81811 111.68 9.17651 112.093 9.62719C112.527 10.0573 112.837 10.5592 113.023 11.1327C113.209 11.6858 113.302 12.2389 113.302 12.7919H112.062C112.062 12.3618 111.99 11.9521 111.845 11.5629C111.7 11.1533 111.463 10.805 111.132 10.5182C110.801 10.211 110.357 9.96517 109.799 9.78082C109.262 9.59646 108.59 9.50429 107.784 9.50429C106.875 9.50429 106.089 9.73988 105.428 10.211C104.767 10.6821 104.219 11.2659 103.785 11.9623C103.372 12.6588 103.062 13.4167 102.855 14.236C102.669 15.0349 102.576 15.7825 102.576 16.479V22.3169H98.2361ZM157.729 13.683C157.729 14.912 157.615 16.1001 157.388 17.2472C157.16 18.3738 156.768 19.3774 156.21 20.2583C155.652 21.1186 154.897 21.8151 153.947 22.3476C152.996 22.8597 151.797 23.1158 150.351 23.1158C148.842 23.1158 147.488 22.9416 146.29 22.5934C145.091 22.2247 144.078 21.6614 143.252 20.9035C142.425 20.1456 141.795 19.1727 141.361 17.9846C140.927 16.7761 140.71 15.3422 140.71 13.683V1.14691H145.05V13.683C145.05 16.2025 145.546 18.1791 146.538 19.613C147.53 21.0264 149.09 21.7331 151.219 21.7331C152.19 21.7331 153.006 21.5078 153.668 21.0571C154.35 20.6065 154.897 20.0125 155.311 19.275C155.724 18.5171 156.024 17.6568 156.21 16.6941C156.396 15.7109 156.489 14.7071 156.489 13.683V1.14691H157.729V13.683ZM160.516 3.97367C160.66 3.44112 160.96 2.98024 161.415 2.59101C161.89 2.18137 162.448 1.83308 163.089 1.54634C163.75 1.2596 164.473 1.04452 165.259 0.9011C166.065 0.757681 166.881 0.68602 167.708 0.68602C168.989 0.68602 170.146 0.849857 171.18 1.17763C172.234 1.48489 173.122 1.91505 173.846 2.46811C174.59 3.02117 175.158 3.68693 175.551 4.46528C175.964 5.22321 176.171 6.06301 176.171 6.98478C176.171 8.29578 175.768 9.4019 174.962 10.3032C174.176 11.2044 173.071 11.8702 171.645 12.3003C172.554 12.6485 173.298 13.1401 173.877 13.7752C174.476 14.4102 174.92 15.25 175.21 16.2947L176.977 22.6549H172.389L170.684 16.479C170.353 15.25 169.909 14.3384 169.351 13.7444C168.793 13.1299 167.935 12.8227 166.778 12.8227H164.856V22.6549H160.516V3.97367ZM164.856 11.5936H167.367C168.669 11.5936 169.712 11.184 170.498 10.3646C171.283 9.54522 171.676 8.41868 171.676 6.98478C171.676 6.26788 171.572 5.60213 171.366 4.98761C171.159 4.3731 170.859 3.84056 170.467 3.38988C170.095 2.91879 169.64 2.56029 169.103 2.31448C168.586 2.04816 168.007 1.91505 167.367 1.91505C166.705 1.91505 166.116 2.11992 165.6 2.52956C165.104 2.9392 164.856 3.50257 164.856 4.21947V11.5936Z" fill="black"/>
<path d="M115.4 11.9009C115.4 10.2212 115.648 8.69521 116.144 7.32276C116.661 5.9299 117.374 4.74181 118.283 3.75859C119.193 2.77537 120.288 2.01743 121.569 1.48489C122.871 0.952344 124.308 0.68602 125.878 0.68602C127.449 0.68602 128.875 0.952344 130.156 1.48489C131.458 2.01743 132.564 2.77537 133.473 3.75859C134.383 4.74181 135.085 5.9299 135.581 7.32276C136.098 8.69521 136.356 10.2212 136.356 11.9009C136.356 13.5806 136.098 15.1169 135.581 16.5097C135.085 17.8822 134.383 19.06 133.473 20.0432C132.564 21.0264 131.458 21.7843 130.156 22.3169C128.875 22.8494 127.449 23.1158 125.878 23.1158C124.308 23.1158 122.871 22.8494 121.569 22.3169C120.288 21.7843 119.193 21.0264 118.283 20.0432C117.374 19.06 116.661 17.8822 116.144 16.5097C115.648 15.1169 115.4 13.5806 115.4 11.9009ZM119.895 11.9009C119.895 13.3757 120.04 14.7174 120.329 15.9259C120.619 17.1345 121.022 18.1689 121.538 19.0292C122.055 19.8896 122.685 20.5553 123.429 21.0264C124.173 21.4975 124.99 21.7331 125.878 21.7331C126.788 21.7331 127.604 21.4975 128.327 21.0264C129.071 20.5553 129.702 19.8896 130.218 19.0292C130.735 18.1689 131.138 17.1345 131.427 15.9259C131.717 14.7174 131.861 13.3757 131.861 11.9009C131.861 10.4261 131.717 9.08434 131.427 7.87583C131.138 6.66732 130.735 5.63285 130.218 4.77253C129.702 3.91222 129.071 3.24646 128.327 2.77537C127.604 2.30427 126.788 2.06868 125.878 2.06868C124.99 2.06868 124.173 2.30427 123.429 2.77537C122.685 3.24646 122.055 3.91222 121.538 4.77253C121.022 5.63285 120.619 6.66732 120.329 7.87583C120.04 9.08434 119.895 10.4261 119.895 11.9009ZM126.653 15.4036C126.591 15.7928 126.343 15.9874 125.909 15.9874C125.455 15.9874 125.196 15.7928 125.134 15.4036C124.948 14.5842 124.638 13.9595 124.204 13.5293C123.77 13.0992 123.15 12.8021 122.344 12.6383C121.952 12.5769 121.755 12.331 121.755 11.9009C121.755 11.4502 121.952 11.1942 122.344 11.1327C123.171 10.9484 123.801 10.6411 124.235 10.211C124.669 9.78082 124.969 9.1663 125.134 8.36744C125.196 7.97821 125.455 7.78365 125.909 7.78365C126.343 7.78365 126.591 7.97821 126.653 8.36744C126.839 9.18682 127.149 9.81154 127.583 10.2417C128.017 10.6719 128.637 10.9689 129.443 11.1327C129.836 11.1942 130.032 11.4502 130.032 11.9009C130.032 12.331 129.836 12.5769 129.443 12.6383C128.617 12.8227 127.986 13.1299 127.552 13.5601C127.118 13.9902 126.819 14.6047 126.653 15.4036Z" fill="#CC0000"/>
</svg>
